# xmcd CD database file generated by Grip 2.95
# 
# Track frame offsets:
#       150
#       13515
#       27960
#       48650
#       67575
#       87800
#       102855
#       118232
#       130285
#       154530
#       173422
#       185932
#       199127
#       210465
#       226535
#       247162
#       262705
# 
# Disc length: 3832 seconds
# 
# Revision: 3
# Processed by: cddbd v1.4PL0 Copyright (c) Steve Scherf et al.
# Submitted via: Grip 2.95
# 
DISCID=d70ef611
DTITLE=Mississippi John Hurt - Mississippi John Hurt Memorial Anthology Disk 1
DYEAR=1900
DGENRE=
TTITLE0=Slidin' Delta
TTITLE1=Salty Dog
TTITLE2=Louis Collins
TTITLE3=Staggerlee
TTITLE4=Monday Mornin' Blues
TTITLE5=Comin' Home
TTITLE6=Candyman Blues
TTITLE7=A Hot Time In The Old Town Tonight
TTITLE8=K.C. Jones Blues
TTITLE9=Make Me A Pallet On Your Floor
TTITLE10=You Can't Come In
TTITLE11=Joe Turner
TTITLE12=Spanish Flangdang
TTITLE13=Lonesome Am I
TTITLE14=I Shall Not Be Moved
TTITLE15=CC Rider
TTITLE16=Trouble Blues
EXTD=
EXTT0=
EXTT1=
EXTT2=
EXTT3=
EXTT4=
EXTT5=
EXTT6=
EXTT7=
EXTT8=
EXTT9=
EXTT10=
EXTT11=
EXTT12=
EXTT13=
EXTT14=
EXTT15=
EXTT16=
PLAYORDER=
